<svg xmlns="http://www.w3.org/2000/svg" width="64" height="65" viewBox="0 0 64 65">
  <g fill="none" transform="translate(-2 1)">
    <circle cx="34" cy="31.5" r="31.5" fill="#1C1C1C" stroke="#F59023"/>
    <path stroke="#F5F5F5" stroke-linecap="square" d="M34,15 L34,10"/>
    <circle cx="33.5" cy="35" r="20" fill="#F59023" stroke="#FFF"/>
    <path fill="#1C1C1C" d="M24.6109337,23.2284303 C27.9810384,22.4094768 30.9440605,22 33.5,22 C36.0559409,22 39.0189648,22.4094772 42.3890719,23.2284317 L42.3890708,23.228436 C45.975319,24.0999139 48.5,27.3115803 48.5,31.0021968 L48.5,31.0058159 C48.5,34.3163124 45.8163124,37 42.5058159,37 L24.4941841,37 C21.1836876,37 18.5,34.3163124 18.5,31.0058159 L18.5000018,31.0021939 C18.5000018,27.3115759 21.024684,24.0999083 24.6109337,23.2284303 Z"/>
    <circle cx="25.5" cy="31" r="2" fill="#FFF"/>
    <circle cx="39.5" cy="31" r="2" fill="#FFF"/>
    <circle cx="34" cy="7" r="3" fill="#F5F5F5"/>
  </g>
</svg>
